<svg width="258" height="185" viewBox="0 0 258 185" fill="none" xmlns="http://www.w3.org/2000/svg">
<path d="M20.7678 182.416C17.6318 182.416 14.7518 181.952 12.1278 181.024C9.53575 180.096 7.43975 178.736 5.83975 176.944C4.23975 175.12 3.35975 172.88 3.19975 170.224C3.13575 169.136 3.31175 167.936 3.72775 166.624C4.14375 165.312 4.71975 164.016 5.45575 162.736C6.22375 161.424 7.11975 160.256 8.14375 159.232C9.19975 158.176 10.3198 157.376 11.5038 156.832C11.5998 156.768 11.7438 156.72 11.9358 156.688C12.1598 156.656 12.3198 156.64 12.4158 156.64C12.6078 156.64 12.7038 156.688 12.7038 156.784C12.7038 156.944 12.4638 157.2 11.9838 157.552C10.6398 158.608 9.53575 159.824 8.67175 161.2C7.77575 162.576 7.10375 164.048 6.65575 165.616C6.20775 167.184 5.98375 168.768 5.98375 170.368C5.98375 172.256 6.38375 173.888 7.18375 175.264C8.01575 176.608 9.11975 177.712 10.4958 178.576C11.8718 179.472 13.4398 180.128 15.1998 180.544C16.9598 180.96 18.7998 181.168 20.7198 181.168C22.8638 181.168 24.9758 180.928 27.0558 180.448C29.1678 179.968 31.0878 179.28 32.8158 178.384C35.4718 176.976 37.5678 175.232 39.1038 173.152C40.6718 171.072 41.4558 169.008 41.4558 166.96C41.4558 165.872 41.2158 164.832 40.7358 163.84C40.2878 162.848 39.5518 161.952 38.5278 161.152C37.7598 160.544 36.8158 159.968 35.6958 159.424C34.6078 158.88 33.4398 158.352 32.1918 157.84C30.9758 157.328 29.7758 156.816 28.5918 156.304C27.4078 155.76 26.3678 155.184 25.4718 154.576C24.1918 153.712 23.2478 152.784 22.6398 151.792C22.0638 150.8 21.7758 149.808 21.7758 148.816C21.7758 147.632 22.1118 146.48 22.7838 145.36C23.4878 144.24 24.4318 143.232 25.6158 142.336C26.8318 141.408 28.1918 140.688 29.6958 140.176C31.0078 139.728 32.4318 139.376 33.9678 139.12C35.5358 138.864 37.0718 138.736 38.5758 138.736C39.8238 138.736 41.0078 138.832 42.1278 139.024C43.2798 139.184 44.2878 139.488 45.1518 139.936C46.2398 140.448 47.0718 141.136 47.6478 142C48.2238 142.832 48.5118 143.712 48.5118 144.64C48.5118 145.92 47.9358 147.04 46.7838 148C46.3678 148.32 45.9038 148.624 45.3918 148.912C44.8798 149.168 44.2718 149.392 43.5678 149.584C43.4398 149.616 43.2958 149.632 43.1358 149.632C42.7518 149.632 42.5598 149.52 42.5598 149.296C42.5598 149.168 42.6558 149.04 42.8478 148.912C43.0718 148.752 43.3918 148.656 43.8078 148.624C44.7678 148.496 45.4878 148.128 45.9678 147.52C46.4798 146.912 46.7358 146.208 46.7358 145.408C46.7358 144.576 46.4478 143.76 45.8718 142.96C45.3278 142.128 44.4798 141.44 43.3278 140.896C42.1758 140.32 40.7038 140.032 38.9118 140.032C37.8878 140.032 36.7518 140.144 35.5038 140.368C34.2878 140.592 32.9598 140.96 31.5198 141.472C29.7598 142.08 28.2878 142.976 27.1038 144.16C25.9518 145.344 25.3758 146.608 25.3758 147.952C25.3758 148.784 25.6478 149.632 26.1918 150.496C26.7678 151.328 27.6798 152.128 28.9278 152.896C29.9838 153.536 31.1838 154.176 32.5278 154.816C33.8718 155.424 35.2318 156.048 36.6078 156.688C37.9838 157.296 39.2318 157.952 40.3518 158.656C42.1118 159.744 43.3758 160.912 44.1438 162.16C44.9118 163.408 45.2958 164.688 45.2958 166C45.2958 167.536 44.8318 169.088 43.9038 170.656C43.0078 172.192 41.8238 173.648 40.3518 175.024C38.8798 176.368 37.2638 177.568 35.5038 178.624C33.4558 179.84 31.1358 180.768 28.5438 181.408C25.9838 182.08 23.3918 182.416 20.7678 182.416ZM51.8838 178C50.9878 178 50.1878 177.696 49.4838 177.088C48.7798 176.448 48.4277 175.456 48.4277 174.112C48.4277 173.056 48.6198 171.76 49.0038 170.224C49.4198 168.656 49.9158 167.04 50.4918 165.376C51.0998 163.68 51.6918 162.144 52.2678 160.768H49.7238C49.4998 160.768 49.3878 160.608 49.3878 160.288C49.3878 160.128 49.4198 159.984 49.4838 159.856C49.5798 159.728 49.7078 159.664 49.8678 159.664H52.7478C53.2918 158.448 53.8678 157.264 54.4758 156.112C55.0838 154.96 55.6758 153.872 56.2518 152.848C56.9878 151.568 57.7718 150.608 58.6038 149.968C59.4358 149.328 60.1558 149.008 60.7638 149.008C61.2438 149.008 61.6438 149.2 61.9638 149.584C62.2838 149.936 62.4438 150.48 62.4438 151.216C62.4438 151.664 62.3478 152.288 62.1558 153.088C61.9638 153.856 61.6598 154.672 61.2438 155.536C61.0198 155.984 60.6998 156.624 60.2838 157.456C59.8998 158.288 59.5158 159.024 59.1318 159.664H61.4358C61.6598 159.664 61.7718 159.824 61.7718 160.144C61.7718 160.272 61.7398 160.416 61.6758 160.576C61.6118 160.704 61.5158 160.768 61.3878 160.768H58.5558C57.7558 162.144 56.8438 163.488 55.8198 164.8C54.7958 166.112 53.5798 167.424 52.1718 168.736C52.0758 169.024 51.9478 169.44 51.7878 169.984C51.6598 170.528 51.5318 171.088 51.4038 171.664C51.3078 172.208 51.2118 172.672 51.1158 173.056C51.0518 173.44 51.0198 173.632 51.0198 173.632C50.9238 174.048 50.8758 174.432 50.8758 174.784C50.8758 175.456 51.0358 175.952 51.3558 176.272C51.6758 176.56 52.0438 176.704 52.4598 176.704C52.7158 176.704 52.9718 176.672 53.2278 176.608C53.4838 176.512 53.7718 176.352 54.0918 176.128C55.2118 175.328 56.1878 174.24 57.0198 172.864C57.8838 171.488 58.6358 170.16 59.2758 168.88C59.4678 168.496 59.6598 168.304 59.8518 168.304C59.9798 168.304 60.0438 168.4 60.0438 168.592C60.0438 168.688 59.9958 168.864 59.8998 169.12C59.1958 170.592 58.6038 171.776 58.1238 172.672C57.6438 173.568 57.1798 174.32 56.7318 174.928C56.2838 175.504 55.7558 176.08 55.1478 176.656C54.6998 177.104 54.1878 177.44 53.6118 177.664C53.0358 177.888 52.4598 178 51.8838 178ZM55.6758 159.664H58.1238C58.5718 158.832 58.9878 158.016 59.3718 157.216C59.7878 156.416 60.1558 155.616 60.4758 154.816C60.6998 154.304 60.8918 153.728 61.0518 153.088C61.2118 152.448 61.2918 151.952 61.2918 151.6C61.2918 151.12 61.1798 150.88 60.9557 150.88C60.7958 150.88 60.5558 151.024 60.2358 151.312C59.9478 151.568 59.5798 152.016 59.1318 152.656C58.5558 153.456 57.9798 154.496 57.4038 155.776C56.8598 157.024 56.2838 158.32 55.6758 159.664ZM52.5558 167.2C53.4838 166.24 54.3478 165.216 55.1478 164.128C55.9798 163.04 56.7478 161.92 57.4518 160.768H55.1958C54.6838 161.952 54.2038 163.104 53.7558 164.224C53.3078 165.344 52.9078 166.336 52.5558 167.2ZM60.724 178C60.372 178 59.94 177.92 59.428 177.76C58.948 177.6 58.516 177.312 58.132 176.896C57.78 176.448 57.604 175.792 57.604 174.928C57.604 174.096 57.796 173.296 58.18 172.528C58.596 171.728 58.98 170.96 59.332 170.224C59.236 170.224 59.124 170.192 58.996 170.128C58.9 170.064 58.852 169.968 58.852 169.84C58.852 169.712 58.884 169.584 58.948 169.456C59.076 169.2 59.22 168.928 59.38 168.64C59.54 168.352 59.684 168.048 59.812 167.728C60.292 166.736 60.772 165.792 61.252 164.896C61.732 163.968 62.148 163.152 62.5 162.448C62.852 161.744 63.46 161.392 64.324 161.392H67.3C66.756 161.808 66.26 162.272 65.812 162.784C65.396 163.264 64.868 164.16 64.228 165.472C64.228 165.472 64.116 165.696 63.892 166.144C63.668 166.592 63.38 167.168 63.028 167.872C62.708 168.544 62.372 169.232 62.02 169.936C61.7 170.64 61.428 171.232 61.204 171.712C60.788 172.608 60.516 173.328 60.388 173.872C60.26 174.384 60.196 174.864 60.196 175.312C60.196 176.368 60.548 176.896 61.252 176.896C62.02 176.896 62.948 176.272 64.036 175.024C64.932 173.968 65.812 172.704 66.676 171.232C67.54 169.76 68.356 168.24 69.124 166.672C69.924 165.104 70.628 163.696 71.236 162.448C71.588 161.744 72.212 161.392 73.108 161.392H75.748C75.268 161.776 74.868 162.144 74.548 162.496C74.228 162.816 73.908 163.264 73.588 163.84C73.3 164.384 72.9 165.168 72.388 166.192C71.972 167.056 71.524 167.984 71.044 168.976C70.596 169.936 70.196 170.848 69.844 171.712C69.492 172.576 69.268 173.28 69.172 173.824C69.14 174.144 69.108 174.384 69.076 174.544C69.044 174.704 69.028 174.88 69.028 175.072C69.028 175.68 69.124 176.112 69.316 176.368C69.54 176.624 69.796 176.752 70.084 176.752C70.852 176.752 71.62 176.32 72.388 175.456C73.188 174.592 73.94 173.536 74.644 172.288C75.38 171.04 76.004 169.856 76.516 168.736C76.708 168.384 76.884 168.208 77.044 168.208C77.236 168.208 77.332 168.32 77.332 168.544C77.332 168.704 77.268 168.896 77.14 169.12C76.788 169.888 76.356 170.768 75.844 171.76C75.332 172.752 74.756 173.728 74.116 174.688C73.476 175.648 72.772 176.448 72.004 177.088C71.236 177.696 70.404 178 69.508 178C68.708 178 68.052 177.712 67.54 177.136C67.028 176.528 66.772 175.68 66.772 174.592C66.772 173.728 66.932 172.8 67.252 171.808C66.708 172.768 66.084 173.728 65.38 174.688C64.676 175.648 63.924 176.448 63.124 177.088C62.324 177.696 61.524 178 60.724 178ZM87.046 178C86.182 178 85.462 177.568 84.886 176.704C84.726 176.448 84.582 176.112 84.454 175.696C84.326 175.28 84.262 174.816 84.262 174.304C84.262 174.016 84.278 173.728 84.31 173.44C84.342 173.12 84.406 172.8 84.502 172.48C84.054 173.184 83.526 173.968 82.918 174.832C82.342 175.664 81.67 176.4 80.902 177.04C80.166 177.648 79.334 177.952 78.406 177.952C78.086 177.952 77.75 177.904 77.398 177.808C76.534 177.552 75.91 177.104 75.526 176.464C75.174 175.824 74.998 175.056 74.998 174.16C74.998 173.168 75.19 172.08 75.574 170.896C75.99 169.712 76.502 168.56 77.11 167.44C77.75 166.32 78.406 165.36 79.078 164.56C80.038 163.44 81.142 162.544 82.39 161.872C83.638 161.2 84.902 160.864 86.182 160.864C87.334 160.864 88.422 161.168 89.446 161.776C89.926 160.88 90.438 159.888 90.982 158.8C91.526 157.68 92.07 156.576 92.614 155.488C93.158 154.4 93.638 153.408 94.054 152.512C94.47 151.584 94.79 150.88 95.014 150.4C95.494 149.28 95.942 148.576 96.358 148.288C96.806 147.968 97.334 147.808 97.942 147.808C98.294 147.808 98.678 147.856 99.094 147.952C99.542 148.016 99.974 148.032 100.39 148C100.198 148.192 99.798 148.752 99.19 149.68C98.614 150.576 97.926 151.728 97.126 153.136C96.326 154.544 95.462 156.096 94.534 157.792C93.638 159.456 92.742 161.152 91.846 162.88C90.982 164.576 90.166 166.192 89.398 167.728C88.662 169.232 88.07 170.528 87.622 171.616C87.494 171.872 87.302 172.4 87.046 173.2C86.822 173.968 86.71 174.64 86.71 175.216C86.71 175.632 86.806 176 86.998 176.32C87.19 176.608 87.51 176.752 87.958 176.752C88.566 176.752 89.174 176.448 89.782 175.84C90.422 175.2 91.03 174.432 91.606 173.536C92.182 172.608 92.694 171.712 93.142 170.848C93.59 169.952 93.926 169.248 94.15 168.736C94.31 168.384 94.502 168.208 94.726 168.208C94.918 168.208 95.014 168.352 95.014 168.64C95.014 168.672 95.014 168.736 95.014 168.832C95.014 168.896 94.982 168.976 94.918 169.072C94.63 169.744 94.23 170.576 93.718 171.568C93.238 172.56 92.662 173.552 91.99 174.544C91.318 175.536 90.566 176.368 89.734 177.04C88.902 177.68 88.006 178 87.046 178ZM78.742 176.56C79.19 176.56 79.75 176.32 80.422 175.84C81.094 175.328 81.814 174.528 82.582 173.44C83.478 172.16 84.502 170.56 85.654 168.64C86.806 166.72 87.942 164.688 89.062 162.544C88.646 162.16 88.166 161.968 87.622 161.968C86.726 161.968 85.718 162.384 84.598 163.216C83.51 164.048 82.438 165.104 81.382 166.384C80.358 167.664 79.494 168.96 78.79 170.272C78.31 171.168 77.958 171.984 77.734 172.72C77.542 173.456 77.446 174.096 77.446 174.64C77.446 175.92 77.878 176.56 78.742 176.56ZM99.5328 158.512C99.0528 158.512 98.6528 158.352 98.3328 158.032C98.0448 157.68 97.9008 157.264 97.9008 156.784C97.9008 156.176 98.1408 155.648 98.6208 155.2C99.1008 154.752 99.6288 154.528 100.205 154.528C100.717 154.528 101.133 154.688 101.453 155.008C101.773 155.328 101.933 155.712 101.933 156.16C101.933 156.768 101.693 157.312 101.213 157.792C100.733 158.272 100.173 158.512 99.5328 158.512ZM95.6448 178C94.4608 178 93.6288 177.664 93.1488 176.992C92.6688 176.288 92.4288 175.488 92.4288 174.592C92.4288 174.112 92.4768 173.632 92.5728 173.152C92.7008 172.64 92.8448 172.176 93.0048 171.76L96.2208 163.552C96.3168 163.296 96.3648 163.072 96.3648 162.88C96.3648 162.56 96.2848 162.288 96.1248 162.064C95.9648 161.808 95.8528 161.632 95.7888 161.536L98.4288 161.44C98.9088 161.408 99.2448 161.472 99.4368 161.632C99.6608 161.76 99.7728 161.92 99.7728 162.112C99.7728 162.304 99.6608 162.656 99.4368 163.168L95.4528 172.528C95.4528 172.528 95.3568 172.736 95.1648 173.152C95.0048 173.536 94.9088 173.792 94.8768 173.92C94.7808 174.4 94.7168 174.704 94.6848 174.832C94.6528 174.96 94.6367 175.04 94.6367 175.072C94.6367 175.104 94.6367 175.232 94.6367 175.456C94.6367 175.872 94.7328 176.224 94.9248 176.512C95.1488 176.8 95.5168 176.944 96.0288 176.944C96.3488 176.944 96.7168 176.848 97.1328 176.656C97.5488 176.464 97.8528 176.272 98.0448 176.08C98.8448 175.248 99.6288 174.16 100.397 172.816C101.197 171.44 101.933 170.08 102.605 168.736C102.733 168.416 102.893 168.256 103.085 168.256C103.245 168.256 103.325 168.368 103.325 168.592C103.325 168.72 103.277 168.912 103.181 169.168C102.861 169.84 102.461 170.672 101.981 171.664C101.501 172.656 100.925 173.648 100.253 174.64C99.6128 175.6 98.9088 176.4 98.1408 177.04C97.3728 177.68 96.5408 178 95.6448 178ZM104.898 178C103.682 178 102.786 177.6 102.21 176.8C101.634 175.968 101.346 174.96 101.346 173.776C101.346 172.336 101.682 170.832 102.354 169.264C102.994 167.792 103.81 166.448 104.802 165.232C105.794 164.016 106.866 163.04 108.018 162.304C109.17 161.536 110.29 161.152 111.378 161.152C112.594 161.152 113.49 161.552 114.066 162.352C114.642 163.152 114.93 164.16 114.93 165.376C114.93 166.848 114.594 168.352 113.922 169.888C113.538 170.752 112.994 171.712 112.29 172.768C111.586 173.792 110.786 174.736 109.89 175.6C110.082 175.952 110.354 176.256 110.706 176.512C111.058 176.736 111.538 176.848 112.146 176.848C112.914 176.848 113.634 176.528 114.306 175.888C115.01 175.248 115.65 174.48 116.226 173.584C116.802 172.656 117.314 171.728 117.762 170.8C118.21 169.872 118.578 169.12 118.866 168.544C118.962 168.352 119.122 168.256 119.346 168.256C119.474 168.256 119.57 168.32 119.634 168.448C119.698 168.544 119.682 168.704 119.586 168.928C119.394 169.408 119.074 170.128 118.626 171.088C118.178 172.016 117.634 172.992 116.994 174.016C116.354 175.008 115.618 175.856 114.786 176.56C113.954 177.264 113.026 177.616 112.002 177.616C111.298 177.616 110.69 177.504 110.178 177.28C109.666 177.024 109.25 176.72 108.93 176.368C108.258 176.88 107.586 177.28 106.914 177.568C106.242 177.856 105.57 178 104.898 178ZM105.618 176.944C106.482 176.944 107.41 176.528 108.402 175.696C108.146 175.312 107.954 174.912 107.826 174.496C107.698 174.08 107.634 173.696 107.634 173.344C107.634 172.768 107.762 172.272 108.018 171.856C108.306 171.44 108.738 171.232 109.314 171.232C109.73 171.232 110.066 171.392 110.322 171.712C110.61 172 110.754 172.336 110.754 172.72C110.754 172.816 110.738 172.912 110.706 173.008C110.706 173.072 110.69 173.152 110.658 173.248C111.202 172.512 111.714 171.648 112.194 170.656C113.25 168.384 113.778 166.512 113.778 165.04C113.778 164.304 113.634 163.728 113.346 163.312C113.058 162.896 112.626 162.688 112.05 162.688C111.378 162.688 110.642 162.976 109.842 163.552C109.074 164.128 108.322 164.896 107.586 165.856C106.882 166.816 106.258 167.888 105.714 169.072C105.202 170.16 104.786 171.216 104.466 172.24C104.178 173.232 104.034 174.096 104.034 174.832C104.034 175.472 104.162 175.984 104.418 176.368C104.674 176.752 105.074 176.944 105.618 176.944ZM171.365 180.016C170.469 180.016 169.573 179.808 168.677 179.392C167.813 178.976 166.997 178.368 166.229 177.568C165.109 176.416 164.133 175.04 163.301 173.44C162.501 171.808 161.813 170.144 161.237 168.448C160.661 166.72 160.213 165.152 159.893 163.744C159.573 162.304 159.349 161.2 159.221 160.432C158.037 162.704 156.805 164.96 155.525 167.2C154.277 169.408 152.677 171.584 150.725 173.728C148.869 175.744 146.837 177.264 144.629 178.288C142.421 179.344 140.133 179.872 137.765 179.872C137.029 179.872 136.277 179.824 135.509 179.728C133.397 179.472 131.845 178.864 130.853 177.904C129.861 176.944 129.365 175.92 129.365 174.832C129.365 173.648 129.893 172.576 130.949 171.616C132.005 170.656 133.509 170.176 135.461 170.176C136.101 170.176 136.789 170.24 137.525 170.368C138.261 170.496 139.029 170.704 139.829 170.992C140.181 171.12 140.357 171.264 140.357 171.424C140.357 171.552 140.229 171.616 139.973 171.616C139.813 171.616 139.685 171.6 139.589 171.568C138.533 171.184 137.589 170.992 136.757 170.992C135.413 170.992 134.389 171.392 133.685 172.192C132.981 172.96 132.629 173.808 132.629 174.736C132.629 175.632 133.013 176.464 133.781 177.232C134.549 178 135.733 178.384 137.333 178.384C139.349 178.384 141.205 177.92 142.901 176.992C144.597 176.032 146.181 174.736 147.653 173.104C149.125 171.44 150.533 169.568 151.877 167.488C153.221 165.376 154.533 163.184 155.813 160.912C157.957 157.104 159.893 153.648 161.621 150.544C163.381 147.408 165.237 144.752 167.189 142.576C166.325 142.48 165.445 142.416 164.549 142.384C163.653 142.352 162.741 142.336 161.813 142.336C159.797 142.336 157.701 142.448 155.525 142.672C153.381 142.864 151.301 143.184 149.285 143.632C146.565 144.208 144.229 145.072 142.277 146.224C140.325 147.344 138.773 148.608 137.621 150.016C136.501 151.392 135.797 152.784 135.509 154.192C135.413 154.704 135.365 155.2 135.365 155.68C135.365 157.312 135.909 158.576 136.997 159.472C138.085 160.368 139.333 160.816 140.741 160.816C141.637 160.816 142.533 160.64 143.429 160.288C144.357 159.904 145.189 159.312 145.925 158.512C146.533 157.872 146.981 157.28 147.269 156.736C147.557 156.16 147.717 155.728 147.749 155.44C147.781 154.992 147.877 154.768 148.037 154.768C148.133 154.768 148.213 154.848 148.277 155.008C148.373 155.168 148.405 155.328 148.373 155.488C148.245 156.224 148.021 156.944 147.701 157.648C147.381 158.352 146.997 158.944 146.549 159.424C145.653 160.352 144.629 161.04 143.477 161.488C142.325 161.936 141.221 162.16 140.165 162.16C138.917 162.16 137.733 161.888 136.613 161.344C135.525 160.8 134.645 160.016 133.973 158.992C133.301 157.936 132.965 156.64 132.965 155.104C132.965 153.312 133.589 151.488 134.837 149.632C136.085 147.744 137.957 146.08 140.453 144.64C142.981 143.2 146.117 142.208 149.861 141.664C151.749 141.408 153.573 141.216 155.333 141.088C157.125 140.928 158.853 140.848 160.517 140.848C161.861 140.848 163.173 140.896 164.453 140.992C165.733 141.088 166.997 141.216 168.245 141.376C169.077 140.512 169.637 140.08 169.925 140.08C170.149 140.08 170.261 140.256 170.261 140.608C170.261 140.736 170.245 140.896 170.213 141.088C170.181 141.28 170.133 141.472 170.069 141.664C170.933 141.792 171.765 141.936 172.565 142.096C173.397 142.224 174.133 142.384 174.773 142.576C177.301 143.28 179.141 144.208 180.293 145.36C181.477 146.48 182.069 147.696 182.069 149.008C182.069 150.416 181.429 151.824 180.149 153.232C178.901 154.64 177.125 155.888 174.821 156.976C172.549 158.064 169.877 158.864 166.805 159.376C165.813 159.536 164.933 159.648 164.165 159.712C163.429 159.776 162.789 159.824 162.245 159.856C162.309 160.176 162.453 160.848 162.677 161.872C162.901 162.896 163.221 164.112 163.637 165.52C164.053 166.896 164.581 168.352 165.221 169.888C165.893 171.424 166.693 172.88 167.621 174.256C168.357 175.344 169.109 176.24 169.877 176.944C170.645 177.648 171.461 178 172.325 178C172.869 178 173.429 177.856 174.005 177.568C174.613 177.28 175.237 176.816 175.877 176.176C176.645 175.408 177.333 174.544 177.941 173.584C178.581 172.592 179.125 171.664 179.573 170.8C180.021 169.936 180.325 169.328 180.485 168.976C180.741 168.528 181.013 168.304 181.301 168.304C181.397 168.304 181.445 168.368 181.445 168.496C181.445 168.56 181.397 168.72 181.301 168.976C181.141 169.328 180.901 169.872 180.581 170.608C180.261 171.312 179.877 172.096 179.429 172.96C178.981 173.824 178.501 174.672 177.989 175.504C177.477 176.336 176.965 177.04 176.453 177.616C175.717 178.416 174.885 179.008 173.957 179.392C173.061 179.808 172.197 180.016 171.365 180.016ZM160.229 158.56C161.157 158.4 162.149 158.288 163.205 158.224C164.261 158.16 165.301 158.064 166.325 157.936C167.989 157.712 169.557 157.28 171.029 156.64C172.501 155.968 173.797 155.168 174.917 154.24C176.069 153.312 176.965 152.336 177.605 151.312C178.245 150.256 178.565 149.248 178.565 148.288C178.565 146.112 177.109 144.608 174.197 143.776C173.621 143.616 172.869 143.456 171.941 143.296C171.045 143.136 170.229 142.992 169.493 142.864C167.957 145.488 166.373 148.064 164.741 150.592C163.141 153.12 161.637 155.776 160.229 158.56ZM183.955 178.192C182.771 178.192 181.699 177.808 180.739 177.04C179.811 176.272 179.347 175.104 179.347 173.536C179.347 172.096 179.699 170.56 180.403 168.928C181.107 167.264 182.003 165.808 183.091 164.56C184.019 163.472 185.059 162.576 186.211 161.872C187.363 161.168 188.451 160.816 189.475 160.816C190.179 160.816 190.787 161.008 191.299 161.392C191.843 161.808 192.115 162.4 192.115 163.168C192.115 163.968 191.811 164.848 191.203 165.808C190.595 166.768 189.731 167.664 188.611 168.496C188.131 168.848 187.523 169.184 186.787 169.504C186.051 169.824 185.315 170.096 184.579 170.32C183.843 170.512 183.235 170.608 182.755 170.608C182.595 170.992 182.435 171.504 182.275 172.144C182.147 172.784 182.083 173.44 182.083 174.112C182.083 174.912 182.243 175.632 182.563 176.272C182.883 176.912 183.475 177.232 184.339 177.232C185.395 177.232 186.355 176.928 187.219 176.32C188.083 175.712 188.851 174.96 189.523 174.064C190.195 173.136 190.755 172.208 191.203 171.28C191.683 170.352 192.067 169.568 192.355 168.928C192.547 168.48 192.803 168.256 193.123 168.256C193.283 168.256 193.363 168.336 193.363 168.496C193.363 168.624 193.315 168.784 193.219 168.976C192.771 169.936 192.291 170.96 191.779 172.048C191.267 173.104 190.659 174.112 189.955 175.072C189.251 176 188.403 176.752 187.411 177.328C186.451 177.904 185.299 178.192 183.955 178.192ZM183.091 169.744C183.539 169.744 184.291 169.584 185.347 169.264C186.403 168.912 187.363 168.368 188.227 167.632C189.059 166.896 189.699 166.096 190.147 165.232C190.595 164.336 190.819 163.584 190.819 162.976C190.819 162.272 190.563 161.92 190.051 161.92C189.667 161.92 189.139 162.176 188.467 162.688C187.795 163.2 186.963 164.064 185.971 165.28C185.363 166.048 184.787 166.88 184.243 167.776C183.699 168.672 183.315 169.328 183.091 169.744ZM202.822 178.144C202.47 178.176 202.07 178.096 201.622 177.904C201.174 177.712 200.774 177.36 200.422 176.848C200.102 176.336 199.942 175.616 199.942 174.688C199.942 173.92 200.086 172.992 200.374 171.904C199.99 172.512 199.494 173.264 198.886 174.16C198.278 175.024 197.622 175.792 196.918 176.464C196.31 177.04 195.734 177.456 195.19 177.712C194.646 177.968 194.15 178.096 193.702 178.096C192.87 178.096 192.198 177.728 191.686 176.992C191.174 176.224 190.918 175.232 190.918 174.016C190.918 172.736 191.238 171.28 191.878 169.648C192.518 168.016 193.558 166.32 194.998 164.56C195.926 163.44 197.046 162.544 198.358 161.872C199.702 161.168 201.014 160.816 202.294 160.816C203.03 160.816 203.734 160.944 204.406 161.2C205.078 161.424 205.67 161.808 206.182 162.352C206.406 162.576 206.518 162.832 206.518 163.12C206.518 163.312 206.438 163.472 206.278 163.6C206.118 163.728 205.91 163.76 205.654 163.696C205.302 162.576 204.55 162.016 203.398 162.016C202.854 162.016 202.23 162.192 201.526 162.544C200.438 163.12 199.302 164.064 198.118 165.376C196.966 166.688 195.958 168.048 195.094 169.456C194.966 169.648 194.758 170.016 194.47 170.56C194.214 171.104 193.958 171.712 193.702 172.384C193.446 173.056 193.27 173.712 193.174 174.352C193.142 174.544 193.126 174.688 193.126 174.784C193.126 174.848 193.126 174.96 193.126 175.12C193.126 176.176 193.526 176.704 194.326 176.704C195.286 176.704 196.374 176 197.59 174.592C198.422 173.568 199.174 172.496 199.846 171.376C200.518 170.256 201.206 169.056 201.91 167.776C202.39 166.912 202.838 166.192 203.254 165.616C203.67 165.04 204.262 164.752 205.03 164.752C205.382 164.752 205.734 164.8 206.086 164.896C206.438 164.992 206.806 165.008 207.19 164.944C206.934 165.2 206.582 165.68 206.134 166.384C205.718 167.088 205.27 167.888 204.79 168.784C204.31 169.68 203.878 170.592 203.494 171.52C203.11 172.448 202.838 173.248 202.678 173.92C202.646 174.112 202.598 174.384 202.534 174.736C202.502 175.088 202.486 175.344 202.486 175.504C202.486 176.4 202.742 176.848 203.254 176.848C203.766 176.848 204.31 176.544 204.886 175.936C205.494 175.328 206.086 174.576 206.662 173.68C207.238 172.784 207.766 171.888 208.246 170.992C208.726 170.064 209.11 169.312 209.398 168.736C209.526 168.416 209.718 168.256 209.974 168.256C210.134 168.256 210.214 168.368 210.214 168.592C210.214 168.688 210.166 168.864 210.07 169.12C209.686 169.92 209.222 170.832 208.678 171.856C208.134 172.848 207.542 173.824 206.902 174.784C206.262 175.712 205.59 176.496 204.886 177.136C204.214 177.744 203.526 178.08 202.822 178.144ZM211.729 178.144C210.385 178.144 209.473 177.792 208.993 177.088C208.513 176.352 208.273 175.488 208.273 174.496C208.273 173.472 208.417 172.416 208.705 171.328C208.993 170.24 209.249 169.328 209.473 168.592C209.985 166.8 210.625 164.896 211.393 162.88C212.193 160.832 213.057 158.832 213.985 156.88C214.945 154.896 215.889 153.12 216.817 151.552C217.553 150.304 218.337 149.376 219.169 148.768C220.033 148.128 220.785 147.808 221.425 147.808C221.937 147.808 222.337 148 222.625 148.384C222.945 148.736 223.105 149.28 223.105 150.016C223.105 150.528 223.009 151.136 222.817 151.84C222.657 152.544 222.369 153.344 221.953 154.24C220.833 156.736 219.489 159.232 217.921 161.728C216.385 164.224 214.433 166.56 212.065 168.736C211.937 169.152 211.761 169.648 211.537 170.224C211.345 170.768 211.169 171.328 211.009 171.904C210.817 172.768 210.721 173.504 210.721 174.112C210.721 175.104 210.913 175.856 211.297 176.368C211.713 176.848 212.209 177.088 212.785 177.088C213.297 177.088 213.841 176.912 214.417 176.56C214.993 176.176 215.537 175.632 216.049 174.928C216.817 173.808 217.505 172.672 218.113 171.52C218.753 170.336 219.233 169.424 219.553 168.784C219.745 168.432 219.953 168.256 220.177 168.256C220.337 168.256 220.417 168.352 220.417 168.544C220.417 168.704 220.369 168.88 220.273 169.072C219.985 169.712 219.601 170.544 219.121 171.568C218.673 172.56 218.097 173.568 217.393 174.592C216.721 175.584 215.905 176.432 214.945 177.136C214.017 177.808 212.945 178.144 211.729 178.144ZM212.449 167.2C213.601 166.016 214.721 164.656 215.809 163.12C216.897 161.552 217.905 159.936 218.833 158.272C219.793 156.576 220.593 154.976 221.233 153.472C221.457 152.992 221.633 152.464 221.761 151.888C221.921 151.312 222.001 150.832 222.001 150.448C222.001 150 221.889 149.776 221.665 149.776C221.537 149.776 221.345 149.904 221.089 150.16C220.833 150.384 220.497 150.784 220.081 151.36C219.473 152.16 218.801 153.248 218.065 154.624C217.361 156 216.641 157.472 215.905 159.04C215.169 160.608 214.497 162.128 213.889 163.6C213.281 165.04 212.801 166.24 212.449 167.2ZM224.923 158.512C224.443 158.512 224.043 158.352 223.723 158.032C223.435 157.68 223.291 157.264 223.291 156.784C223.291 156.176 223.531 155.648 224.011 155.2C224.491 154.752 225.019 154.528 225.595 154.528C226.107 154.528 226.523 154.688 226.843 155.008C227.163 155.328 227.323 155.712 227.323 156.16C227.323 156.768 227.083 157.312 226.603 157.792C226.123 158.272 225.563 158.512 224.923 158.512ZM221.035 178C219.851 178 219.019 177.664 218.539 176.992C218.059 176.288 217.819 175.488 217.819 174.592C217.819 174.112 217.867 173.632 217.963 173.152C218.091 172.64 218.235 172.176 218.395 171.76L221.611 163.552C221.707 163.296 221.755 163.072 221.755 162.88C221.755 162.56 221.675 162.288 221.515 162.064C221.355 161.808 221.243 161.632 221.179 161.536L223.819 161.44C224.299 161.408 224.635 161.472 224.827 161.632C225.051 161.76 225.163 161.92 225.163 162.112C225.163 162.304 225.051 162.656 224.827 163.168L220.843 172.528C220.843 172.528 220.747 172.736 220.555 173.152C220.395 173.536 220.299 173.792 220.267 173.92C220.171 174.4 220.107 174.704 220.075 174.832C220.043 174.96 220.027 175.04 220.027 175.072C220.027 175.104 220.027 175.232 220.027 175.456C220.027 175.872 220.123 176.224 220.315 176.512C220.539 176.8 220.907 176.944 221.419 176.944C221.739 176.944 222.107 176.848 222.523 176.656C222.939 176.464 223.243 176.272 223.435 176.08C224.235 175.248 225.019 174.16 225.787 172.816C226.587 171.44 227.323 170.08 227.995 168.736C228.123 168.416 228.283 168.256 228.475 168.256C228.635 168.256 228.715 168.368 228.715 168.592C228.715 168.72 228.667 168.912 228.571 169.168C228.251 169.84 227.851 170.672 227.371 171.664C226.891 172.656 226.315 173.648 225.643 174.64C225.003 175.6 224.299 176.4 223.531 177.04C222.763 177.68 221.931 178 221.035 178ZM227.121 178.576C226.545 178.576 226.257 178.336 226.257 177.856C226.257 177.536 226.337 177.264 226.497 177.04C226.593 176.848 226.929 176.64 227.505 176.416C228.081 176.16 228.673 175.92 229.281 175.696C229.921 175.44 230.353 175.248 230.577 175.12C231.153 174.832 231.777 174.288 232.449 173.488C233.153 172.656 233.873 171.728 234.609 170.704C235.345 169.648 236.065 168.624 236.769 167.632C237.473 166.64 238.145 165.808 238.785 165.136C238.209 165.008 237.553 164.864 236.817 164.704C236.081 164.544 235.393 164.464 234.753 164.464C233.985 164.464 233.313 164.56 232.737 164.752C232.193 164.912 231.649 165.264 231.105 165.808C230.561 166.32 229.985 167.088 229.377 168.112C228.769 169.136 228.033 170.496 227.169 172.192C227.009 172.448 226.817 172.576 226.593 172.576C226.433 172.576 226.353 172.48 226.353 172.288C226.353 172.16 226.401 172 226.497 171.808C226.657 171.52 226.929 171.008 227.313 170.272C227.697 169.504 228.081 168.736 228.465 167.968C228.849 167.168 229.137 166.592 229.329 166.24C230.129 164.8 230.897 163.744 231.633 163.072C232.401 162.4 233.137 161.968 233.841 161.776C234.577 161.584 235.265 161.488 235.905 161.488C236.449 161.488 236.961 161.6 237.441 161.824C237.953 162.048 238.449 162.288 238.929 162.544C239.409 162.768 239.889 162.88 240.369 162.88C240.977 162.88 241.425 162.72 241.713 162.4C242.001 162.08 242.257 161.92 242.481 161.92C242.705 161.92 242.897 162.016 243.057 162.208C243.217 162.4 243.297 162.64 243.297 162.928C243.297 163.344 243.153 163.616 242.865 163.744C242.609 163.872 242.353 164.016 242.097 164.176C241.233 164.656 240.401 165.376 239.601 166.336C238.833 167.264 238.065 168.288 237.297 169.408C236.561 170.528 235.825 171.616 235.089 172.672C234.353 173.696 233.617 174.544 232.881 175.216C233.521 175.408 234.305 175.616 235.233 175.84C236.161 176.064 237.009 176.176 237.777 176.176C237.969 176.176 238.129 176.176 238.257 176.176C238.417 176.144 238.577 176.112 238.737 176.08C239.473 175.888 240.161 175.456 240.801 174.784C241.441 174.08 242.033 173.28 242.577 172.384C243.121 171.488 243.601 170.592 244.017 169.696C244.465 168.8 244.833 168.064 245.121 167.488C245.217 167.296 245.361 167.2 245.553 167.2C245.745 167.2 245.841 167.296 245.841 167.488C245.841 167.648 245.809 167.792 245.745 167.92C245.009 169.68 244.193 171.376 243.297 173.008C242.401 174.608 241.425 175.904 240.369 176.896C239.345 177.888 238.225 178.368 237.009 178.336C235.633 178.272 234.417 178.128 233.361 177.904C232.305 177.68 231.409 177.568 230.673 177.568C230.065 177.568 229.473 177.728 228.897 178.048C228.353 178.4 227.761 178.576 227.121 178.576ZM247.846 178.192C246.662 178.192 245.59 177.808 244.63 177.04C243.702 176.272 243.238 175.104 243.238 173.536C243.238 172.096 243.59 170.56 244.294 168.928C244.998 167.264 245.894 165.808 246.982 164.56C247.91 163.472 248.95 162.576 250.102 161.872C251.254 161.168 252.342 160.816 253.366 160.816C254.07 160.816 254.678 161.008 255.19 161.392C255.734 161.808 256.006 162.4 256.006 163.168C256.006 163.968 255.702 164.848 255.094 165.808C254.486 166.768 253.622 167.664 252.502 168.496C252.022 168.848 251.414 169.184 250.678 169.504C249.942 169.824 249.206 170.096 248.47 170.32C247.734 170.512 247.126 170.608 246.646 170.608C246.486 170.992 246.326 171.504 246.166 172.144C246.038 172.784 245.974 173.44 245.974 174.112C245.974 174.912 246.134 175.632 246.454 176.272C246.774 176.912 247.366 177.232 248.23 177.232C249.286 177.232 250.246 176.928 251.11 176.32C251.974 175.712 252.742 174.96 253.414 174.064C254.086 173.136 254.646 172.208 255.094 171.28C255.574 170.352 255.958 169.568 256.246 168.928C256.438 168.48 256.694 168.256 257.014 168.256C257.174 168.256 257.254 168.336 257.254 168.496C257.254 168.624 257.206 168.784 257.11 168.976C256.662 169.936 256.182 170.96 255.67 172.048C255.158 173.104 254.55 174.112 253.846 175.072C253.142 176 252.294 176.752 251.302 177.328C250.342 177.904 249.19 178.192 247.846 178.192ZM246.982 169.744C247.43 169.744 248.182 169.584 249.238 169.264C250.294 168.912 251.254 168.368 252.118 167.632C252.95 166.896 253.59 166.096 254.038 165.232C254.486 164.336 254.71 163.584 254.71 162.976C254.71 162.272 254.454 161.92 253.942 161.92C253.558 161.92 253.03 162.176 252.358 162.688C251.686 163.2 250.854 164.064 249.862 165.28C249.254 166.048 248.678 166.88 248.134 167.776C247.59 168.672 247.206 169.328 246.982 169.744Z" fill="#8C8AD9"/>
<path d="M130.853 0L147.762 54.5877L202.479 54.5877L158.212 88.3247L175.12 142.912L130.853 109.175L86.5866 142.912L103.495 88.3247L59.2281 54.5877L113.945 54.5877L130.853 0Z" fill="#8C8AD9"/>
<path d="M145.364 104.31C144.338 104.31 143.311 104.072 142.284 103.595C141.294 103.118 140.359 102.422 139.479 101.505C138.196 100.185 137.078 98.6083 136.124 96.775C135.208 94.905 134.419 92.9983 133.759 91.055C133.099 89.075 132.586 87.2783 132.219 85.665C131.853 84.015 131.596 82.75 131.449 81.87C130.093 84.4733 128.681 87.0583 127.214 89.625C125.784 92.155 123.951 94.6483 121.714 97.105C119.588 99.415 117.259 101.157 114.729 102.33C112.199 103.54 109.578 104.145 106.864 104.145C106.021 104.145 105.159 104.09 104.279 103.98C101.859 103.687 100.081 102.99 98.9443 101.89C97.8077 100.79 97.2393 99.6167 97.2393 98.37C97.2393 97.0133 97.8443 95.785 99.0543 94.685C100.264 93.585 101.988 93.035 104.224 93.035C104.958 93.035 105.746 93.1083 106.589 93.255C107.433 93.4017 108.313 93.64 109.229 93.97C109.633 94.1167 109.834 94.2817 109.834 94.465C109.834 94.6117 109.688 94.685 109.394 94.685C109.211 94.685 109.064 94.6667 108.954 94.63C107.744 94.19 106.663 93.97 105.709 93.97C104.169 93.97 102.996 94.4283 102.189 95.345C101.383 96.225 100.979 97.1967 100.979 98.26C100.979 99.2867 101.419 100.24 102.299 101.12C103.179 102 104.536 102.44 106.369 102.44C108.679 102.44 110.806 101.908 112.749 100.845C114.693 99.745 116.508 98.26 118.194 96.39C119.881 94.4833 121.494 92.3383 123.034 89.955C124.574 87.535 126.078 85.0233 127.544 82.42C130.001 78.0567 132.219 74.0967 134.199 70.54C136.216 66.9467 138.343 63.9033 140.579 61.41C139.589 61.3 138.581 61.2267 137.554 61.19C136.528 61.1533 135.483 61.135 134.419 61.135C132.109 61.135 129.708 61.2633 127.214 61.52C124.758 61.74 122.374 62.1067 120.064 62.62C116.948 63.28 114.271 64.27 112.034 65.59C109.798 66.8733 108.019 68.3217 106.699 69.935C105.416 71.5117 104.609 73.1067 104.279 74.72C104.169 75.3067 104.114 75.875 104.114 76.425C104.114 78.295 104.738 79.7433 105.984 80.77C107.231 81.7967 108.661 82.31 110.274 82.31C111.301 82.31 112.328 82.1083 113.354 81.705C114.418 81.265 115.371 80.5867 116.214 79.67C116.911 78.9367 117.424 78.2583 117.754 77.635C118.084 76.975 118.268 76.48 118.304 76.15C118.341 75.6367 118.451 75.38 118.634 75.38C118.744 75.38 118.836 75.4717 118.909 75.655C119.019 75.8383 119.056 76.0217 119.019 76.205C118.873 77.0483 118.616 77.8733 118.249 78.68C117.883 79.4867 117.443 80.165 116.929 80.715C115.903 81.7783 114.729 82.5667 113.409 83.08C112.089 83.5933 110.824 83.85 109.614 83.85C108.184 83.85 106.828 83.5383 105.544 82.915C104.298 82.2917 103.289 81.3933 102.519 80.22C101.749 79.01 101.364 77.525 101.364 75.765C101.364 73.7117 102.079 71.6217 103.509 69.495C104.939 67.3317 107.084 65.425 109.944 63.775C112.841 62.125 116.434 60.9883 120.724 60.365C122.888 60.0717 124.978 59.8517 126.994 59.705C129.048 59.5217 131.028 59.43 132.934 59.43C134.474 59.43 135.978 59.485 137.444 59.595C138.911 59.705 140.359 59.8517 141.789 60.035C142.743 59.045 143.384 58.55 143.714 58.55C143.971 58.55 144.099 58.7517 144.099 59.155C144.099 59.3017 144.081 59.485 144.044 59.705C144.008 59.925 143.953 60.145 143.879 60.365C144.869 60.5117 145.823 60.6767 146.739 60.86C147.693 61.0067 148.536 61.19 149.269 61.41C152.166 62.2167 154.274 63.28 155.594 64.6C156.951 65.8833 157.629 67.2767 157.629 68.78C157.629 70.3933 156.896 72.0067 155.429 73.62C153.999 75.2333 151.964 76.6633 149.324 77.91C146.721 79.1567 143.659 80.0733 140.139 80.66C139.003 80.8433 137.994 80.9717 137.114 81.045C136.271 81.1183 135.538 81.1733 134.914 81.21C134.988 81.5767 135.153 82.3467 135.409 83.52C135.666 84.6933 136.033 86.0867 136.509 87.7C136.986 89.2767 137.591 90.945 138.324 92.705C139.094 94.465 140.011 96.1333 141.074 97.71C141.918 98.9567 142.779 99.9833 143.659 100.79C144.539 101.597 145.474 102 146.464 102C147.088 102 147.729 101.835 148.389 101.505C149.086 101.175 149.801 100.643 150.534 99.91C151.414 99.03 152.203 98.04 152.899 96.94C153.633 95.8033 154.256 94.74 154.769 93.75C155.283 92.76 155.631 92.0633 155.814 91.66C156.108 91.1467 156.419 90.89 156.749 90.89C156.859 90.89 156.914 90.9633 156.914 91.11C156.914 91.1833 156.859 91.3667 156.749 91.66C156.566 92.0633 156.291 92.6867 155.924 93.53C155.558 94.3367 155.118 95.235 154.604 96.225C154.091 97.215 153.541 98.1867 152.954 99.14C152.368 100.093 151.781 100.9 151.194 101.56C150.351 102.477 149.398 103.155 148.334 103.595C147.308 104.072 146.318 104.31 145.364 104.31ZM132.604 79.725C133.668 79.5417 134.804 79.4133 136.014 79.34C137.224 79.2667 138.416 79.1567 139.589 79.01C141.496 78.7533 143.293 78.2583 144.979 77.525C146.666 76.755 148.151 75.8383 149.434 74.775C150.754 73.7117 151.781 72.5933 152.514 71.42C153.248 70.21 153.614 69.055 153.614 67.955C153.614 65.4617 151.946 63.7383 148.609 62.785C147.949 62.6017 147.088 62.4183 146.024 62.235C144.998 62.0517 144.063 61.8867 143.219 61.74C141.459 64.7467 139.644 67.6983 137.774 70.595C135.941 73.4917 134.218 76.535 132.604 79.725Z" fill="white"/>
</svg>
